<svg id="Layer_1" data-name="Layer 1" xmlns="http://www.w3.org/2000/svg" viewBox="0 0 66 66"><path d="M15.27,42.57V47A1.24,1.24,0,0,1,14,48.2H4.8V45.09a11.73,11.73,0,0,1,.61-3.77H14A1.25,1.25,0,0,1,15.27,42.57Z" fill="#85ed5f"/><path d="M32.88,46.34H27.32a1,1,0,1,1,0-2h5.56a1,1,0,0,1,0,2Z" fill="#85ed5f"/><path d="M32.88,50.6H27.32a1,1,0,0,1,0-2h5.56a1,1,0,0,1,0,2Z" fill="#85ed5f"/><path d="M32.88,54.85H27.32a1,1,0,0,1,0-2h5.56a1,1,0,0,1,0,2Z" fill="#85ed5f"/><path d="M10.11,61.27H7.91A3.15,3.15,0,0,1,4.8,58.1v-13a11.73,11.73,0,0,1,.61-3.77A11.89,11.89,0,0,1,16.69,33.2H29.75a3.17,3.17,0,0,1,3.13,3.17V58.1a3.17,3.17,0,0,1-3.17,3.17H20.4" fill="none" stroke="#5dda34" stroke-linecap="round" stroke-linejoin="round" stroke-width="2"/><path d="M47.16,54.06V14.72a9.76,9.76,0,0,0-19.51,0V27.65h-4V14.72A13.76,13.76,0,0,1,37.4,1h0A13.76,13.76,0,0,1,51.12,14.72V54.06Z" fill="#85ed5f"/><path d="M22.55,27.65h6.08a1.13,1.13,0,0,1,1.13,1.13V33.2a0,0,0,0,1,0,0H21.42a0,0,0,0,1,0,0V28.77A1.13,1.13,0,0,1,22.55,27.65Z" fill="none" stroke="#5dda34" stroke-linecap="round" stroke-linejoin="round" stroke-width="2"/><path d="M44,54.06H54.32A4.65,4.65,0,0,1,59,58.71v1.62a.39.39,0,0,1-.39.39H39.75a.39.39,0,0,1-.39-.39V58.71A4.65,4.65,0,0,1,44,54.06Z" fill="#fff" stroke="#5dda34" stroke-miterlimit="10" stroke-width="2"/><circle cx="15.28" cy="59.56" r="5.44" fill="none" stroke="#5dda34" stroke-linecap="round" stroke-linejoin="round" stroke-width="2"/><path d="M15.28,61.94a2.38,2.38,0,1,1,2.37-2.38A2.39,2.39,0,0,1,15.28,61.94Z" fill="#85ed5f"/></svg>