<svg id="Layer_1" data-name="Layer 1" xmlns="http://www.w3.org/2000/svg" viewBox="0 0 66 66"><line x1="30" y1="56.68" x2="30" y2="60.73" fill="none" stroke="#5dda34" stroke-linecap="round" stroke-linejoin="round" stroke-width="2"/><path d="M9.13,60.73V51.65a5.23,5.23,0,0,0-1-3.1l-.75-1a22.13,22.13,0,0,1-3.46-7L1.48,32.17A12,12,0,0,1,1,28.8v-.3a2.16,2.16,0,0,1,1.48-2.05h0a2.15,2.15,0,0,1,2.37.7l.7.86a17.75,17.75,0,0,1,2.14,3.45l1.44,3.06V15.41a2.6,2.6,0,0,1,2.61-2.6h0a2.6,2.6,0,0,1,2.61,2.6v16" fill="none" stroke="#5dda34" stroke-linecap="round" stroke-linejoin="round" stroke-width="2"/><path d="M19.56,31.37V11.11A2.61,2.61,0,0,0,17,8.5h0a2.6,2.6,0,0,0-2.6,2.61v4.3" fill="none" stroke="#5dda34" stroke-linecap="round" stroke-linejoin="round" stroke-width="2"/><path d="M24.78,31.37V14.26a2.61,2.61,0,0,0-2.61-2.61h0a2.61,2.61,0,0,0-2.61,2.61" fill="none" stroke="#5dda34" stroke-linecap="round" stroke-linejoin="round" stroke-width="2"/><path d="M30,40.5V21.63A2.61,2.61,0,0,0,27.39,19h0a2.61,2.61,0,0,0-2.61,2.61" fill="none" stroke="#5dda34" stroke-linecap="round" stroke-linejoin="round" stroke-width="2"/><rect x="6.58" y="60.73" width="25.96" height="4.49" rx="2.22" fill="#85ed5f"/><path d="M44.75,59.14l3.55-8.35a5.2,5.2,0,0,1,2.15-2.46l1.08-.64a22.17,22.17,0,0,0,5.92-5.08L63,35.85a12.55,12.55,0,0,0,1.76-2.91l.12-.28a2.17,2.17,0,0,0-.56-2.47h0a2.16,2.16,0,0,0-2.46-.28l-1,.52a17.45,17.45,0,0,0-3.32,2.34L55,35l7.47-17.59A2.61,2.61,0,0,0,61.08,14h0a2.61,2.61,0,0,0-3.42,1.39L51.42,30.08" fill="none" stroke="#5dda34" stroke-linecap="round" stroke-linejoin="round" stroke-width="2"/><path d="M46.62,28,54.54,9.39A2.62,2.62,0,0,1,58,8h0a2.6,2.6,0,0,1,1.38,3.42l-1.68,4" fill="none" stroke="#5dda34" stroke-linecap="round" stroke-linejoin="round" stroke-width="2"/><path d="M41.82,26l6.69-15.74a2.6,2.6,0,0,1,3.42-1.38h0a2.61,2.61,0,0,1,1.38,3.42" fill="none" stroke="#5dda34" stroke-linecap="round" stroke-linejoin="round" stroke-width="2"/><path d="M25.54,51,40.82,15a2.61,2.61,0,0,1,3.42-1.38h0A2.61,2.61,0,0,1,45.63,17" fill="none" stroke="#5dda34" stroke-linecap="round" stroke-linejoin="round" stroke-width="2"/><rect x="21.29" y="54.89" width="25.96" height="4.49" rx="2.22" transform="translate(43.48 123.11) rotate(-156.99)" fill="#85ed5f"/><path d="M37.48,10.16c0,1.25-1.9.46-2.78,1.34s-.1,2.78-1.34,2.78S32.9,12.38,32,11.5s-2.78-.09-2.78-1.34,1.9-.45,2.78-1.33.09-2.78,1.34-2.78.38,2.27,1.47,2.88C36.2,9.69,37.48,8.92,37.48,10.16Z" fill="#85ed5f"/><path d="M42.14,5.64c0,.76-1.16.28-1.7.81s-.06,1.7-.82,1.7-.27-1.16-.81-1.7-1.7,0-1.7-.81,1.16-.28,1.7-.82.06-1.69.81-1.69.24,1.39.9,1.75C41.36,5.35,42.14,4.88,42.14,5.64Z" fill="#85ed5f"/></svg>