<svg id="Layer_1" data-name="Layer 1" xmlns="http://www.w3.org/2000/svg" viewBox="0 0 66 66"><path d="M18.92,63.38s3.68-.84,6.68-7.44" fill="none" stroke="#85ed5f" stroke-linecap="round" stroke-linejoin="round" stroke-width="2"/><path d="M27.68,60.77a9.68,9.68,0,0,1-3.43,4" fill="none" stroke="#85ed5f" stroke-linecap="round" stroke-linejoin="round" stroke-width="2"/><path d="M33.34,45.77,44.43,2.28A1.73,1.73,0,0,1,46.53,1h0a1.71,1.71,0,0,1,1.24,2.09L36.69,46.59" fill="none" stroke="#5dda34" stroke-miterlimit="10" stroke-width="2"/><path d="M39.07,44.59l-.76,2.89a9.5,9.5,0,0,0-2.14-.8,42.67,42.67,0,0,0-5-1.06L32,42.71a1.88,1.88,0,0,1,2.3-1.35l3.45.91A1.9,1.9,0,0,1,39.07,44.59Z" fill="#85ed5f"/><path d="M40.48,55.92a14.09,14.09,0,0,1-11.59,9,21.41,21.41,0,0,1-13-3,.61.61,0,0,1,0-1c1.81-1.15,5.86-4.42,7.81-11.42,1.11-4,4.56-4.41,7.94-3.95a39.42,39.42,0,0,1,4.46.95,9.41,9.41,0,0,1,2,.75c.19.1.39.21.58.33C41.84,49.68,41.63,53,40.48,55.92Z" fill="none" stroke="#5dda34" stroke-linecap="round" stroke-linejoin="round" stroke-width="2"/><circle cx="49.2" cy="58.41" r="1.11" fill="#85ed5f"/><circle cx="42.11" cy="63.45" r="0.77" fill="#85ed5f"/><circle cx="45.64" cy="58.41" r="0.44" fill="#85ed5f"/><circle cx="49.98" cy="63.45" r="0.44" fill="#85ed5f"/><circle cx="41.67" cy="60.55" r="0.44" fill="#85ed5f"/><circle cx="46.06" cy="63.45" r="1.57" fill="#85ed5f"/></svg>