<svg id="Layer_1" data-name="Layer 1" xmlns="http://www.w3.org/2000/svg" viewBox="0 0 66 66"><path d="M37.26,11.3c.47,8.68,4.07,13,8.93,13.92a1,1,0,0,0,1-1.59c-2.68-3.71-4.05-7.11-3.65-12.33Z" fill="#85ed5f"/><path d="M45.71,65H20.29a4,4,0,0,1-4-4V41.45a24.67,24.67,0,0,1,14.15,1.61,20.45,20.45,0,0,0,9.32,2,18.06,18.06,0,0,0,9.89-3.61V61A4,4,0,0,1,45.71,65Z" fill="#85ed5f"/><path d="M49.68,42.94V61a4,4,0,0,1-4,4H20.29a4,4,0,0,1-4-4V26.38A2.65,2.65,0,0,1,19,23.74H35.32A2.64,2.64,0,0,1,38,26.38v4.85a5.65,5.65,0,0,0,5.64,5.64h0A6.08,6.08,0,0,1,49.68,42.94Z" fill="none" stroke="#5dda34" stroke-miterlimit="10" stroke-width="2"/><path d="M19.54,23.74V18.6a1,1,0,0,1,1-1H33.75a1,1,0,0,1,1,1v5.14" fill="none" stroke="#5dda34" stroke-linecap="round" stroke-linejoin="round" stroke-width="2"/><path d="M16.32,10.3V6.68a5,5,0,0,1,5-5H46.7A1.32,1.32,0,0,1,48,3v7A1.32,1.32,0,0,1,46.7,11.3H17.32A1,1,0,0,1,16.32,10.3Z" fill="none" stroke="#5dda34" stroke-linecap="round" stroke-linejoin="round" stroke-width="2"/><line x1="32.05" y1="11.3" x2="32.05" y2="17.6" fill="none" stroke="#5dda34" stroke-linecap="round" stroke-linejoin="round" stroke-width="2"/><line x1="22.24" y1="17.6" x2="22.24" y2="11.3" fill="none" stroke="#5dda34" stroke-linecap="round" stroke-linejoin="round" stroke-width="2"/><circle cx="52.66" cy="4.81" r="1.11" fill="#85ed5f"/><circle cx="52.66" cy="9.18" r="1.11" fill="#85ed5f"/><circle cx="57.03" cy="6.69" r="1.11" fill="#85ed5f"/><circle cx="61.39" cy="5.58" r="1.11" fill="#85ed5f"/><circle cx="59.66" cy="2.08" r="1.11" fill="#85ed5f"/><circle cx="57.99" cy="10.9" r="1.11" fill="#85ed5f"/><line x1="42.31" y1="2.08" x2="42.31" y2="11.3" fill="none" stroke="#5dda34" stroke-miterlimit="10" stroke-width="2"/></svg>